  0
SECTION
  2
HEADER
  9
$MEASUREMENT
  70
  1
  9
$INSUNITS
  70
  4
  0
ENDSEC
  0
SECTION
  2
TABLES
  0
TABLE
  2
LTYPE
 70
     1
  0
LTYPE
  2
CONTINUOUS
 70
    64
  3
Ausgezogene Linie
 72
    65
 73
     0
 40
0.0
  0
ENDTAB
  0
TABLE
  2
LAYER
 70
     3
  0
LAYER
  2
Contour
 70
    64
 62
     7
  6
CONTINUOUS
  0
LAYER
  2
Engraving
 70
    64
 62
     7
  6
CONTINUOUS
  0
LAYER
  2
Reference_points
 70
    64
 62
     1
  6
CONTINUOUS
  0
ENDTAB
  0
TABLE
  2
STYLE
 70
     1
  0
STYLE
  2
TXT
 70
    64
 40
0.0
 41
1.0
 50
0.0
 71
     0
 42
3.500000
  3
TXT
  0
ENDTAB
  0
ENDSEC
  0
SECTION
  2
BLOCKS
  0
ENDSEC
  0
SECTION
  2
ENTITIES
  0
LINE
  8
Contour
 62
   7
 39
0.100
  6
CONTINUOUS
 10
40.30000
 20
128.50000
 30
 0
 11
40.30000
 21
0.00000
  0
LINE
  8
Contour
 62
   7
 39
0.100
  6
CONTINUOUS
 10
40.30000
 20
0.00000
 30
 0
 11
0.00000
 21
0.00000
  0
LINE
  8
Contour
 62
   7
 39
0.100
  6
CONTINUOUS
 10
0.00000
 20
0.00000
 30
 0
 11
0.00000
 21
128.50000
  0
LINE
  8
Contour
 62
   7
 39
0.100
  6
CONTINUOUS
 10
0.00000
 20
128.50000
 30
 0
 11
40.30000
 21
128.50000
  0
ARC
  8
Contour
 62
   7
 39
0.100
  6
CONTINUOUS
 10
7.50000
 20
125.50000
 30
 0
 40
2.99996
 50
170.40580
 51
189.59420
  0
ARC
  8
Contour
 62
   7
 39
0.100
  6
CONTINUOUS
 10
5.72522
 20
125.20000
 30
 0
 40
1.20000
 50
189.59407
 51
269.98969
  0
LINE
  8
Contour
 62
   7
 39
0.100
  6
CONTINUOUS
 10
5.72500
 20
124.00000
 30
 0
 11
9.27500
 21
124.00000
  0
ARC
  8
Contour
 62
   7
 39
0.100
  6
CONTINUOUS
 10
9.27478
 20
125.20000
 30
 0
 40
1.20000
 50
270.01031
 51
350.40593
  0
ARC
  8
Contour
 62
   7
 39
0.100
  6
CONTINUOUS
 10
7.50000
 20
125.50000
 30
 0
 40
2.99996
 50
350.40580
 51
369.59420
  0
ARC
  8
Contour
 62
   7
 39
0.100
  6
CONTINUOUS
 10
9.27478
 20
125.80000
 30
 0
 40
1.20000
 50
9.59407
 51
89.98969
  0
LINE
  8
Contour
 62
   7
 39
0.100
  6
CONTINUOUS
 10
9.27500
 20
127.00000
 30
 0
 11
5.72500
 21
127.00000
  0
ARC
  8
Contour
 62
   7
 39
0.100
  6
CONTINUOUS
 10
5.72522
 20
125.80000
 30
 0
 40
1.20000
 50
90.01031
 51
170.40593
  0
ARC
  8
Contour
 62
   7
 39
0.100
  6
CONTINUOUS
 10
32.80000
 20
125.50000
 30
 0
 40
2.99996
 50
170.40580
 51
189.59420
  0
ARC
  8
Contour
 62
   7
 39
0.100
  6
CONTINUOUS
 10
31.02522
 20
125.20000
 30
 0
 40
1.20000
 50
189.59407
 51
269.98969
  0
LINE
  8
Contour
 62
   7
 39
0.100
  6
CONTINUOUS
 10
31.02500
 20
124.00000
 30
 0
 11
34.57500
 21
124.00000
  0
ARC
  8
Contour
 62
   7
 39
0.100
  6
CONTINUOUS
 10
34.57478
 20
125.20000
 30
 0
 40
1.20000
 50
270.01031
 51
350.40593
  0
ARC
  8
Contour
 62
   7
 39
0.100
  6
CONTINUOUS
 10
32.80000
 20
125.50000
 30
 0
 40
2.99996
 50
350.40580
 51
369.59420
  0
ARC
  8
Contour
 62
   7
 39
0.100
  6
CONTINUOUS
 10
34.57478
 20
125.80000
 30
 0
 40
1.20000
 50
9.59407
 51
89.98969
  0
LINE
  8
Contour
 62
   7
 39
0.100
  6
CONTINUOUS
 10
34.57500
 20
127.00000
 30
 0
 11
31.02500
 21
127.00000
  0
ARC
  8
Contour
 62
   7
 39
0.100
  6
CONTINUOUS
 10
31.02522
 20
125.80000
 30
 0
 40
1.20000
 50
90.01031
 51
170.40593
  0
ARC
  8
Contour
 62
   7
 39
0.100
  6
CONTINUOUS
 10
7.50000
 20
3.00000
 30
 0
 40
2.99996
 50
170.40580
 51
189.59420
  0
ARC
  8
Contour
 62
   7
 39
0.100
  6
CONTINUOUS
 10
5.72522
 20
2.70000
 30
 0
 40
1.20000
 50
189.59407
 51
269.98969
  0
LINE
  8
Contour
 62
   7
 39
0.100
  6
CONTINUOUS
 10
5.72500
 20
1.50000
 30
 0
 11
9.27500
 21
1.50000
  0
ARC
  8
Contour
 62
   7
 39
0.100
  6
CONTINUOUS
 10
9.27478
 20
2.70000
 30
 0
 40
1.20000
 50
270.01031
 51
350.40593
  0
ARC
  8
Contour
 62
   7
 39
0.100
  6
CONTINUOUS
 10
7.50000
 20
3.00000
 30
 0
 40
2.99996
 50
350.40580
 51
369.59420
  0
ARC
  8
Contour
 62
   7
 39
0.100
  6
CONTINUOUS
 10
9.27478
 20
3.30000
 30
 0
 40
1.20000
 50
9.59407
 51
89.98969
  0
LINE
  8
Contour
 62
   7
 39
0.100
  6
CONTINUOUS
 10
9.27500
 20
4.50000
 30
 0
 11
5.72500
 21
4.50000
  0
ARC
  8
Contour
 62
   7
 39
0.100
  6
CONTINUOUS
 10
5.72522
 20
3.30000
 30
 0
 40
1.20000
 50
90.01031
 51
170.40593
  0
ARC
  8
Contour
 62
   7
 39
0.100
  6
CONTINUOUS
 10
32.80000
 20
3.00000
 30
 0
 40
2.99996
 50
170.40580
 51
189.59420
  0
ARC
  8
Contour
 62
   7
 39
0.100
  6
CONTINUOUS
 10
31.02522
 20
2.70000
 30
 0
 40
1.20000
 50
189.59407
 51
269.98969
  0
LINE
  8
Contour
 62
   7
 39
0.100
  6
CONTINUOUS
 10
31.02500
 20
1.50000
 30
 0
 11
34.57500
 21
1.50000
  0
ARC
  8
Contour
 62
   7
 39
0.100
  6
CONTINUOUS
 10
34.57478
 20
2.70000
 30
 0
 40
1.20000
 50
270.01031
 51
350.40593
  0
ARC
  8
Contour
 62
   7
 39
0.100
  6
CONTINUOUS
 10
32.80000
 20
3.00000
 30
 0
 40
2.99996
 50
350.40580
 51
369.59420
  0
ARC
  8
Contour
 62
   7
 39
0.100
  6
CONTINUOUS
 10
34.57478
 20
3.30000
 30
 0
 40
1.20000
 50
9.59407
 51
89.98969
  0
LINE
  8
Contour
 62
   7
 39
0.100
  6
CONTINUOUS
 10
34.57500
 20
4.50000
 30
 0
 11
31.02500
 21
4.50000
  0
ARC
  8
Contour
 62
   7
 39
0.100
  6
CONTINUOUS
 10
31.02522
 20
3.30000
 30
 0
 40
1.20000
 50
90.01031
 51
170.40593
  0
CIRCLE
  8
Contour
 62
   7
 39
0.100
  6
CONTINUOUS
 10
10.15000
 20
105.00000
 30
 0
 40
3.60000
  0
CIRCLE
  8
Contour
 62
   7
 39
0.100
  6
CONTINUOUS
 10
10.15000
 20
80.00000
 30
 0
 40
3.60000
  0
CIRCLE
  8
Contour
 62
   7
 39
0.100
  6
CONTINUOUS
 10
10.15000
 20
60.00000
 30
 0
 40
3.00000
  0
CIRCLE
  8
Contour
 62
   7
 39
0.100
  6
CONTINUOUS
 10
10.15000
 20
37.00000
 30
 0
 40
3.00000
  0
CIRCLE
  8
Contour
 62
   7
 39
0.100
  6
CONTINUOUS
 10
10.15000
 20
20.00000
 30
 0
 40
3.00000
  0
CIRCLE
  8
Contour
 62
   7
 39
0.100
  6
CONTINUOUS
 10
30.15000
 20
105.00000
 30
 0
 40
3.60000
  0
CIRCLE
  8
Contour
 62
   7
 39
0.100
  6
CONTINUOUS
 10
30.15000
 20
80.00000
 30
 0
 40
3.60000
  0
CIRCLE
  8
Contour
 62
   7
 39
0.100
  6
CONTINUOUS
 10
30.15000
 20
60.00000
 30
 0
 40
3.00000
  0
CIRCLE
  8
Contour
 62
   7
 39
0.100
  6
CONTINUOUS
 10
30.15000
 20
37.00000
 30
 0
 40
3.00000
  0
CIRCLE
  8
Contour
 62
   7
 39
0.100
  6
CONTINUOUS
 10
30.15000
 20
20.00000
 30
 0
 40
3.00000
  0
LINE
  8
Reference_points
 62
   1
 39
0.100
  6
CONTINUOUS
 10
-0.83100
 20
0.00000
 30
 0
 11
0.83100
 21
0.00000
  0
LINE
  8
Reference_points
 62
   1
 39
0.100
  6
CONTINUOUS
 10
0.00000
 20
-0.83100
 30
 0
 11
0.00000
 21
0.83100
  0
LINE
  8
Reference_points
 62
   1
 39
0.100
  6
CONTINUOUS
 10
6.66900
 20
125.50000
 30
 0
 11
8.33100
 21
125.50000
  0
LINE
  8
Reference_points
 62
   1
 39
0.100
  6
CONTINUOUS
 10
7.50000
 20
124.66900
 30
 0
 11
7.50000
 21
126.33100
  0
LINE
  8
Reference_points
 62
   1
 39
0.100
  6
CONTINUOUS
 10
31.96900
 20
125.50000
 30
 0
 11
33.63100
 21
125.50000
  0
LINE
  8
Reference_points
 62
   1
 39
0.100
  6
CONTINUOUS
 10
32.80000
 20
124.66900
 30
 0
 11
32.80000
 21
126.33100
  0
LINE
  8
Reference_points
 62
   1
 39
0.100
  6
CONTINUOUS
 10
6.66900
 20
3.00000
 30
 0
 11
8.33100
 21
3.00000
  0
LINE
  8
Reference_points
 62
   1
 39
0.100
  6
CONTINUOUS
 10
7.50000
 20
2.16900
 30
 0
 11
7.50000
 21
3.83100
  0
LINE
  8
Reference_points
 62
   1
 39
0.100
  6
CONTINUOUS
 10
31.96900
 20
3.00000
 30
 0
 11
33.63100
 21
3.00000
  0
LINE
  8
Reference_points
 62
   1
 39
0.100
  6
CONTINUOUS
 10
32.80000
 20
2.16900
 30
 0
 11
32.80000
 21
3.83100
  0
LINE
  8
Reference_points
 62
   1
 39
0.100
  6
CONTINUOUS
 10
9.31900
 20
105.00000
 30
 0
 11
10.98100
 21
105.00000
  0
LINE
  8
Reference_points
 62
   1
 39
0.100
  6
CONTINUOUS
 10
10.15000
 20
104.16900
 30
 0
 11
10.15000
 21
105.83100
  0
LINE
  8
Reference_points
 62
   1
 39
0.100
  6
CONTINUOUS
 10
9.31900
 20
80.00000
 30
 0
 11
10.98100
 21
80.00000
  0
LINE
  8
Reference_points
 62
   1
 39
0.100
  6
CONTINUOUS
 10
10.15000
 20
79.16900
 30
 0
 11
10.15000
 21
80.83100
  0
LINE
  8
Reference_points
 62
   1
 39
0.100
  6
CONTINUOUS
 10
9.31900
 20
60.00000
 30
 0
 11
10.98100
 21
60.00000
  0
LINE
  8
Reference_points
 62
   1
 39
0.100
  6
CONTINUOUS
 10
10.15000
 20
59.16900
 30
 0
 11
10.15000
 21
60.83100
  0
LINE
  8
Reference_points
 62
   1
 39
0.100
  6
CONTINUOUS
 10
9.31900
 20
37.00000
 30
 0
 11
10.98100
 21
37.00000
  0
LINE
  8
Reference_points
 62
   1
 39
0.100
  6
CONTINUOUS
 10
10.15000
 20
36.16900
 30
 0
 11
10.15000
 21
37.83100
  0
LINE
  8
Reference_points
 62
   1
 39
0.100
  6
CONTINUOUS
 10
9.31900
 20
20.00000
 30
 0
 11
10.98100
 21
20.00000
  0
LINE
  8
Reference_points
 62
   1
 39
0.100
  6
CONTINUOUS
 10
10.15000
 20
19.16900
 30
 0
 11
10.15000
 21
20.83100
  0
LINE
  8
Reference_points
 62
   1
 39
0.100
  6
CONTINUOUS
 10
29.31900
 20
105.00000
 30
 0
 11
30.98100
 21
105.00000
  0
LINE
  8
Reference_points
 62
   1
 39
0.100
  6
CONTINUOUS
 10
30.15000
 20
104.16900
 30
 0
 11
30.15000
 21
105.83100
  0
LINE
  8
Reference_points
 62
   1
 39
0.100
  6
CONTINUOUS
 10
29.31900
 20
80.00000
 30
 0
 11
30.98100
 21
80.00000
  0
LINE
  8
Reference_points
 62
   1
 39
0.100
  6
CONTINUOUS
 10
30.15000
 20
79.16900
 30
 0
 11
30.15000
 21
80.83100
  0
LINE
  8
Reference_points
 62
   1
 39
0.100
  6
CONTINUOUS
 10
29.31900
 20
60.00000
 30
 0
 11
30.98100
 21
60.00000
  0
LINE
  8
Reference_points
 62
   1
 39
0.100
  6
CONTINUOUS
 10
30.15000
 20
59.16900
 30
 0
 11
30.15000
 21
60.83100
  0
LINE
  8
Reference_points
 62
   1
 39
0.100
  6
CONTINUOUS
 10
29.31900
 20
37.00000
 30
 0
 11
30.98100
 21
37.00000
  0
LINE
  8
Reference_points
 62
   1
 39
0.100
  6
CONTINUOUS
 10
30.15000
 20
36.16900
 30
 0
 11
30.15000
 21
37.83100
  0
LINE
  8
Reference_points
 62
   1
 39
0.100
  6
CONTINUOUS
 10
29.31900
 20
20.00000
 30
 0
 11
30.98100
 21
20.00000
  0
LINE
  8
Reference_points
 62
   1
 39
0.100
  6
CONTINUOUS
 10
30.15000
 20
19.16900
 30
 0
 11
30.15000
 21
20.83100
  0
ENDSEC
  0
EOF
