<?xml version="1.0" encoding="UTF-8" standalone="no"?>
<!-- Created with Inkscape (http://www.inkscape.org/) -->

<svg
   width="210mm"
   height="297mm"
   viewBox="0 0 210 297"
   version="1.1"
   id="svg1"
   xml:space="preserve"
   inkscape:version="1.3.2 (091e20e, 2023-11-25)"
   sodipodi:docname="graphics.svg"
   xmlns:inkscape="http://www.inkscape.org/namespaces/inkscape"
   xmlns:sodipodi="http://sodipodi.sourceforge.net/DTD/sodipodi-0.dtd"
   xmlns="http://www.w3.org/2000/svg"
   xmlns:svg="http://www.w3.org/2000/svg"><sodipodi:namedview
     id="namedview1"
     pagecolor="#ffffff"
     bordercolor="#666666"
     borderopacity="1.0"
     inkscape:showpageshadow="2"
     inkscape:pageopacity="0.0"
     inkscape:pagecheckerboard="0"
     inkscape:deskcolor="#d1d1d1"
     inkscape:document-units="mm"
     showguides="true"
     inkscape:zoom="1.6819304"
     inkscape:cx="293.71013"
     inkscape:cy="344.54458"
     inkscape:window-width="1456"
     inkscape:window-height="990"
     inkscape:window-x="530"
     inkscape:window-y="236"
     inkscape:window-maximized="0"
     inkscape:current-layer="layer1"
     showgrid="false"><sodipodi:guide
       position="100,247"
       orientation="0,1"
       id="guide4"
       inkscape:locked="false"
       inkscape:label=""
       inkscape:color="rgb(0,134,229)" /><sodipodi:guide
       position="89.999997,223.49997"
       orientation="0,-1"
       id="guide5"
       inkscape:locked="false" /><sodipodi:guide
       position="99.999997,247.00001"
       orientation="1,0"
       id="guide6"
       inkscape:locked="false" /><sodipodi:guide
       position="90,223.5"
       orientation="-1,0"
       id="guide7"
       inkscape:locked="false"
       inkscape:label=""
       inkscape:color="rgb(0,134,229)" /><sodipodi:guide
       position="110,223.5"
       orientation="-1,0"
       id="guide8"
       inkscape:locked="false"
       inkscape:label=""
       inkscape:color="rgb(0,134,229)" /><sodipodi:guide
       position="89.999996,178.5"
       orientation="0,1"
       id="guide9"
       inkscape:locked="false"
       inkscape:label=""
       inkscape:color="rgb(0,134,229)" /><sodipodi:guide
       position="94.382464,155.5"
       orientation="0,1"
       id="guide10"
       inkscape:locked="false"
       inkscape:label=""
       inkscape:color="rgb(0,134,229)" /><sodipodi:guide
       position="89.999994,138.49966"
       orientation="0,-1"
       id="guide11"
       inkscape:locked="false" /><sodipodi:guide
       position="89.999999,148.49881"
       orientation="0,-1"
       id="guide12"
       inkscape:locked="false" /><sodipodi:guide
       position="89.999949,212.49881"
       orientation="0,-1"
       id="guide52"
       inkscape:locked="false" /><sodipodi:guide
       position="89.999996,167.54445"
       orientation="0,-1"
       id="guide53"
       inkscape:locked="false" /><sodipodi:guide
       position="90.027504,132.32969"
       orientation="0,-1"
       id="guide54"
       inkscape:locked="false" /><sodipodi:guide
       position="100.45217,237.73185"
       orientation="0,-1"
       id="guide1"
       inkscape:locked="false" /><sodipodi:guide
       position="80.896318,247.00001"
       orientation="0,-1"
       id="guide2"
       inkscape:locked="false" /></sodipodi:namedview><defs
     id="defs1"><marker
       id="DistanceX"
       orient="auto"
       refX="0.0"
       refY="0.0"
       style="overflow:visible"><path
         d="M 3,-3 L -3,3 M 0,-5 L  0,5"
         style="stroke:#000000; stroke-width:0.5"
         id="path1" /></marker><pattern
       id="Hatch"
       patternUnits="userSpaceOnUse"
       width="8"
       height="8"
       x="0"
       y="0"><path
         d="M8 4 l-4,4"
         stroke="#000000"
         stroke-width="0.25"
         linecap="square"
         id="path2" /><path
         d="M6 2 l-4,4"
         stroke="#000000"
         stroke-width="0.25"
         linecap="square"
         id="path3" /><path
         d="M4 0 l-4,4"
         stroke="#000000"
         stroke-width="0.25"
         linecap="square"
         id="path4" /></pattern></defs><g
     inkscape:label="Layer 1"
     inkscape:groupmode="layer"
     id="layer1"><path
       style="fill:none;stroke:#000000;stroke-width:0.264583;stroke-linecap:round"
       d="M 120.15,50.000001 V 178.50019"
       id="path5" /><path
       style="fill:none;stroke:#000000;stroke-width:0.264583;stroke-linecap:round"
       d="M 120.15,178.50019 H 79.849998"
       id="path6" /><path
       style="fill:none;stroke:#000000;stroke-width:0.264583;stroke-linecap:round"
       d="M 79.849998,178.50019 V 50.000001"
       id="path7" /><path
       style="fill:none;stroke:#000000;stroke-width:0.264583;stroke-linecap:round"
       d="M 79.849998,50.000001 H 120.15"
       id="path8" /><path
       d="m 84.391999,52.500104 a 2.9999598,2.9999598 0 0 0 0,1.000001"
       style="fill:none;stroke:#000000;stroke-width:0.264583;stroke-linecap:round"
       id="path9" /><path
       d="m 84.392002,53.500105 a 1.2,1.2 0 0 0 1.183,1"
       style="fill:none;stroke:#000000;stroke-width:0.264583;stroke-linecap:round"
       id="path10" /><path
       style="fill:none;stroke:#000000;stroke-width:0.264583;stroke-linecap:round"
       d="m 85.574999,54.500034 h 3.549994"
       id="path11" /><path
       d="m 89.124994,54.500105 a 1.2,1.2 0 0 0 1.183,-1"
       style="fill:none;stroke:#000000;stroke-width:0.264583;stroke-linecap:round"
       id="path12" /><path
       d="m 90.307997,53.500105 a 2.9999598,2.9999598 0 0 0 0,-1.000001"
       style="fill:none;stroke:#000000;stroke-width:0.264583;stroke-linecap:round"
       id="path13" /><path
       d="m 90.307994,52.500104 a 1.2,1.2 0 0 0 -1.183,-1"
       style="fill:none;stroke:#000000;stroke-width:0.264583;stroke-linecap:round"
       id="path14" /><path
       style="fill:none;stroke:#000000;stroke-width:0.264583;stroke-linecap:round"
       d="M 89.124993,51.500188 H 85.574999"
       id="path15" /><path
       d="m 85.575002,51.500104 a 1.2,1.2 0 0 0 -1.183,1"
       style="fill:none;stroke:#000000;stroke-width:0.264583;stroke-linecap:round"
       id="path16" /><path
       d="m 109.69199,52.500104 a 2.9999598,2.9999598 0 0 0 0,1.000001"
       style="fill:none;stroke:#000000;stroke-width:0.264583;stroke-linecap:round"
       id="path17" /><path
       d="m 109.692,53.500105 a 1.2,1.2 0 0 0 1.183,1"
       style="fill:none;stroke:#000000;stroke-width:0.264583;stroke-linecap:round"
       id="path18" /><path
       style="fill:none;stroke:#000000;stroke-width:0.264583;stroke-linecap:round"
       d="m 110.87503,54.500034 h 3.54992"
       id="path19" /><path
       d="m 114.42499,54.500105 a 1.2,1.2 0 0 0 1.183,-1"
       style="fill:none;stroke:#000000;stroke-width:0.264583;stroke-linecap:round"
       id="path20" /><path
       d="m 115.60799,53.500105 a 2.9999598,2.9999598 0 0 0 0,-1.000001"
       style="fill:none;stroke:#000000;stroke-width:0.264583;stroke-linecap:round"
       id="path21" /><path
       d="m 115.60799,52.500104 a 1.2,1.2 0 0 0 -1.183,-1"
       style="fill:none;stroke:#000000;stroke-width:0.264583;stroke-linecap:round"
       id="path22" /><path
       style="fill:none;stroke:#000000;stroke-width:0.264583;stroke-linecap:round"
       d="m 114.42495,51.500188 h -3.54992"
       id="path23" /><path
       d="m 110.875,51.500104 a 1.2,1.2 0 0 0 -1.183,1"
       style="fill:none;stroke:#000000;stroke-width:0.264583;stroke-linecap:round"
       id="path24" /><path
       d="m 84.391999,175.0001 a 2.9999598,2.9999598 0 0 0 0,1.00002"
       style="fill:none;stroke:#000000;stroke-width:0.264583;stroke-linecap:round"
       id="path25" /><path
       d="m 84.392002,176.00012 a 1.2,1.2 0 0 0 1.183,0.99999"
       style="fill:none;stroke:#000000;stroke-width:0.264583;stroke-linecap:round"
       id="path26" /><path
       style="fill:none;stroke:#000000;stroke-width:0.264583;stroke-linecap:round"
       d="m 85.574999,177 h 3.549994"
       id="path27" /><path
       d="m 89.124994,177.00011 a 1.2,1.2 0 0 0 1.183,-0.99999"
       style="fill:none;stroke:#000000;stroke-width:0.264583;stroke-linecap:round"
       id="path28" /><path
       d="m 90.307997,176.00012 a 2.9999598,2.9999598 0 0 0 0,-1.00002"
       style="fill:none;stroke:#000000;stroke-width:0.264583;stroke-linecap:round"
       id="path29" /><path
       d="m 90.307994,175.0001 a 1.2,1.2 0 0 0 -1.183,-1"
       style="fill:none;stroke:#000000;stroke-width:0.264583;stroke-linecap:round"
       id="path30" /><path
       style="fill:none;stroke:#000000;stroke-width:0.264583;stroke-linecap:round"
       d="M 89.124993,173.99963 H 85.574999"
       id="path31" /><path
       d="m 85.575002,174.0001 a 1.2,1.2 0 0 0 -1.183,1"
       style="fill:none;stroke:#000000;stroke-width:0.264583;stroke-linecap:round"
       id="path32" /><path
       d="m 109.69199,175.0001 a 2.9999598,2.9999598 0 0 0 0,1.00002"
       style="fill:none;stroke:#000000;stroke-width:0.264583;stroke-linecap:round"
       id="path33" /><path
       d="m 109.692,176.00012 a 1.2,1.2 0 0 0 1.183,0.99999"
       style="fill:none;stroke:#000000;stroke-width:0.264583;stroke-linecap:round"
       id="path34" /><path
       style="fill:none;stroke:#000000;stroke-width:0.264583;stroke-linecap:round"
       d="m 110.87503,177 h 3.54992"
       id="path35" /><path
       d="m 114.42499,177.00011 a 1.2,1.2 0 0 0 1.183,-0.99999"
       style="fill:none;stroke:#000000;stroke-width:0.264583;stroke-linecap:round"
       id="path36" /><path
       d="m 115.60799,176.00012 a 2.9999598,2.9999598 0 0 0 0,-1.00002"
       style="fill:none;stroke:#000000;stroke-width:0.264583;stroke-linecap:round"
       id="path37" /><path
       d="m 115.60799,175.0001 a 1.2,1.2 0 0 0 -1.183,-1"
       style="fill:none;stroke:#000000;stroke-width:0.264583;stroke-linecap:round"
       id="path38" /><path
       style="fill:none;stroke:#000000;stroke-width:0.264583;stroke-linecap:round"
       d="m 114.42495,173.99963 h -3.54992"
       id="path39" /><path
       d="m 110.875,174.0001 a 1.2,1.2 0 0 0 -1.183,1"
       style="fill:none;stroke:#000000;stroke-width:0.264583;stroke-linecap:round"
       id="path40" /><path
       d="m 93.599998,73.500107 a 3.6,3.6 0 0 0 -7.2,0 3.6,3.6 0 0 0 7.2,0 z"
       style="fill:none;stroke:#000000;stroke-width:0.264583;stroke-linecap:round"
       id="path41" /><path
       d="m 93.599998,98.50011 a 3.6,3.6 0 0 0 -7.2,0 3.6,3.6 0 0 0 7.2,0 z"
       style="fill:none;stroke:#000000;stroke-width:0.264583;stroke-linecap:round"
       id="path42" /><path
       d="m 92.999998,118.50011 a 3,3 0 0 0 -6,0 3,3 0 0 0 6,0 z"
       style="fill:none;stroke:#000000;stroke-width:0.264583;stroke-linecap:round"
       id="path43" /><path
       d="m 92.999998,141.50011 a 3,3 0 0 0 -6,0 3,3 0 0 0 6,0 z"
       style="fill:none;stroke:#000000;stroke-width:0.264583;stroke-linecap:round"
       id="path44" /><path
       d="m 92.999998,158.5001 a 3,3 0 0 0 -6,0 3,3 0 0 0 6,0 z"
       style="fill:none;stroke:#000000;stroke-width:0.264583;stroke-linecap:round"
       id="path45" /><path
       d="m 113.59999,73.500107 a 3.6000002,3.6000002 0 0 0 -7.2,0 3.6000002,3.6000002 0 0 0 7.2,0 z"
       style="fill:none;stroke:#000000;stroke-width:0.264583;stroke-linecap:round"
       id="path46" /><path
       d="m 113.59999,98.50011 a 3.6000002,3.6000002 0 0 0 -7.2,0 3.6000002,3.6000002 0 0 0 7.2,0 z"
       style="fill:none;stroke:#000000;stroke-width:0.264583;stroke-linecap:round"
       id="path47" /><path
       d="m 112.99999,118.50011 a 3.0000006,3.0000006 0 0 0 -6,0 3.0000006,3.0000006 0 0 0 6,0 z"
       style="fill:none;stroke:#000000;stroke-width:0.264583;stroke-linecap:round"
       id="path48" /><path
       d="m 112.99999,141.50011 a 3.0000006,3.0000006 0 0 0 -6,0 3.0000006,3.0000006 0 0 0 6,0 z"
       style="fill:none;stroke:#000000;stroke-width:0.264583;stroke-linecap:round"
       id="path49" /><path
       d="m 112.99999,158.5001 a 3.0000006,3.0000006 0 0 0 -6,0 3.0000006,3.0000006 0 0 0 6,0 z"
       style="fill:none;stroke:#000000;stroke-width:0.264583;stroke-linecap:round"
       id="path50" /><g
       inkscape:label="Engraving"
       id="g51"
       transform="matrix(0.26458333,0,0,0.26458333,85.348123,-85.29462)" /><path
       style="fill:none;stroke:#ff0000;stroke-width:0.264583;stroke-linecap:round"
       d="m 86.519006,53.000111 h 1.66198"
       id="path53" /><path
       style="fill:none;stroke:#ff0000;stroke-width:0.264583;stroke-linecap:round"
       d="M 87.350009,53.831167 V 52.169055"
       id="path54" /><path
       style="fill:none;stroke:#ff0000;stroke-width:0.264583;stroke-linecap:round"
       d="m 111.81907,53.000111 h 1.66185"
       id="path55" /><path
       style="fill:none;stroke:#ff0000;stroke-width:0.264583;stroke-linecap:round"
       d="M 112.65012,53.831167 V 52.169055"
       id="path56" /><path
       style="fill:none;stroke:#ff0000;stroke-width:0.264583;stroke-linecap:round"
       d="m 86.519006,175.49981 h 1.66198"
       id="path57" /><path
       style="fill:none;stroke:#ff0000;stroke-width:0.264583;stroke-linecap:round"
       d="m 87.350009,176.33061 v -1.66159"
       id="path58" /><path
       style="fill:none;stroke:#ff0000;stroke-width:0.264583;stroke-linecap:round"
       d="m 111.81907,175.49981 h 1.66185"
       id="path59" /><path
       style="fill:none;stroke:#ff0000;stroke-width:0.264583;stroke-linecap:round"
       d="m 112.65012,176.33061 v -1.66159"
       id="path60" /><path
       style="fill:none;stroke:#ff0000;stroke-width:0.264583;stroke-linecap:round"
       d="M 89.168993,73.500027 H 90.831"
       id="path61" /><path
       style="fill:none;stroke:#ff0000;stroke-width:0.264583;stroke-linecap:round"
       d="m 89.999997,74.331087 v -1.66185"
       id="path62" /><path
       style="fill:none;stroke:#ff0000;stroke-width:0.264583;stroke-linecap:round"
       d="M 89.168993,98.49998 H 90.831"
       id="path63" /><path
       style="fill:none;stroke:#ff0000;stroke-width:0.264583;stroke-linecap:round"
       d="M 89.999997,99.33104 V 97.66919"
       id="path64" /><path
       style="fill:none;stroke:#ff0000;stroke-width:0.264583;stroke-linecap:round"
       d="M 89.168993,118.5001 H 90.831"
       id="path65" /><path
       style="fill:none;stroke:#ff0000;stroke-width:0.264583;stroke-linecap:round"
       d="m 89.999997,119.33115 v -1.66211"
       id="path66" /><path
       style="fill:none;stroke:#ff0000;stroke-width:0.264583;stroke-linecap:round"
       d="M 89.168993,141.50006 H 90.831"
       id="path67" /><path
       style="fill:none;stroke:#ff0000;stroke-width:0.264583;stroke-linecap:round"
       d="m 89.999997,142.33112 v -1.66211"
       id="path68" /><path
       style="fill:none;stroke:#ff0000;stroke-width:0.264583;stroke-linecap:round"
       d="M 89.168993,158.50034 H 90.831"
       id="path69" /><path
       style="fill:none;stroke:#ff0000;stroke-width:0.264583;stroke-linecap:round"
       d="m 89.999997,159.33113 v -1.66159"
       id="path70" /><path
       style="fill:none;stroke:#ff0000;stroke-width:0.264583;stroke-linecap:round"
       d="m 109.169,73.500027 h 1.66211"
       id="path71" /><path
       style="fill:none;stroke:#ff0000;stroke-width:0.264583;stroke-linecap:round"
       d="m 110.00006,74.331087 v -1.66185"
       id="path72" /><path
       style="fill:none;stroke:#ff0000;stroke-width:0.264583;stroke-linecap:round"
       d="m 109.169,98.49998 h 1.66211"
       id="path73" /><path
       style="fill:none;stroke:#ff0000;stroke-width:0.264583;stroke-linecap:round"
       d="M 110.00006,99.33104 V 97.66919"
       id="path74" /><path
       style="fill:none;stroke:#ff0000;stroke-width:0.264583;stroke-linecap:round"
       d="m 109.169,118.5001 h 1.66211"
       id="path75" /><path
       style="fill:none;stroke:#ff0000;stroke-width:0.264583;stroke-linecap:round"
       d="m 110.00006,119.33115 v -1.66211"
       id="path76" /><path
       style="fill:none;stroke:#ff0000;stroke-width:0.264583;stroke-linecap:round"
       d="m 109.169,141.50006 h 1.66211"
       id="path77" /><path
       style="fill:none;stroke:#ff0000;stroke-width:0.264583;stroke-linecap:round"
       d="m 110.00006,142.33112 v -1.66211"
       id="path78" /><path
       style="fill:none;stroke:#ff0000;stroke-width:0.264583;stroke-linecap:round"
       d="m 109.169,158.50034 h 1.66211"
       id="path79" /><path
       style="fill:none;stroke:#ff0000;stroke-width:0.264583;stroke-linecap:round"
       d="m 110.00006,159.33113 v -1.66159"
       id="path80" /><g
       inkscape:label="0"
       id="g81"
       transform="matrix(0.26458333,0,0,0.26458333,85.348123,-85.29462)" /><text
       xml:space="preserve"
       style="font-size:3.52777px;line-height:1.25;font-family:Futura;-inkscape-font-specification:'Futura, Normal';stroke-width:0.264583"
       x="97.990646"
       y="149.84047"
       id="text1"><tspan
         sodipodi:role="line"
         id="tspan1"
         style="stroke-width:0.264583"
         x="97.990646"
         y="149.84047">IN</tspan></text><text
       xml:space="preserve"
       style="font-size:3.52777px;line-height:1.25;font-family:Futura;-inkscape-font-specification:'Futura, Normal';stroke-width:0.264583"
       x="96.196617"
       y="166.00098"
       id="text2"><tspan
         sodipodi:role="line"
         id="tspan2"
         style="stroke-width:0.264583"
         x="96.196617"
         y="166.00098">OUT</tspan></text><text
       xml:space="preserve"
       style="font-size:3.52777px;line-height:1.25;font-family:Futura;-inkscape-font-specification:'Futura, Normal';stroke-width:0.264583"
       x="95.325012"
       y="85.840469"
       id="text3"><tspan
         sodipodi:role="line"
         id="tspan3"
         style="stroke-width:0.264583"
         x="95.325012"
         y="85.840469">GAIN</tspan></text><text
       xml:space="preserve"
       style="font-size:3.52777px;line-height:1.25;font-family:Futura;-inkscape-font-specification:'Futura, Normal';stroke-width:0.264583"
       x="97.484222"
       y="130.71129"
       id="text4"><tspan
         sodipodi:role="line"
         id="tspan4"
         style="stroke-width:0.264583"
         x="97.484222"
         y="130.71129">CV</tspan></text><path
       style="fill:none;stroke:#000000;stroke-width:0.264583px;stroke-linecap:butt;stroke-linejoin:miter;stroke-opacity:1"
       d="m 90,102.10374 0,13.311"
       id="path51"
       sodipodi:nodetypes="cc" /><path
       style="fill:none;stroke:#000000;stroke-width:0.264583px;stroke-linecap:butt;stroke-linejoin:miter;stroke-opacity:1"
       d="m 110,102.11476 v 13.311"
       id="path51-5"
       sodipodi:nodetypes="cc" /><g
       id="text51"
       style="font-size:3.52777px;line-height:1.25;font-family:Futura;-inkscape-font-specification:'Futura, Normal';stroke-width:0.264583"
       aria-label="DUAL&#10;VINTAGE VCA"><path
         style="text-align:center;text-anchor:middle"
         d="m 95.703114,59.26815 v -2.659608 h 0.558104 q 0.401353,0 0.633897,0.07924 0.249768,0.07751 0.453029,0.26355 0.411688,0.375514 0.411688,0.987017 0,0.613226 -0.428914,0.992186 -0.215318,0.18948 -0.451306,0.263549 -0.220486,0.07407 -0.625284,0.07407 z m 0.401353,-0.377237 h 0.180867 q 0.270439,0 0.449584,-0.05684 0.179144,-0.06029 0.323838,-0.191202 0.296278,-0.27044 0.296278,-0.704521 0,-0.437526 -0.292833,-0.709688 -0.263549,-0.242878 -0.776867,-0.242878 h -0.180867 z m 2.561423,-2.282371 v 1.601966 q 0,0.342787 0.111965,0.501261 0.167087,0.229098 0.470255,0.229098 0.30489,0 0.471977,-0.229098 0.111965,-0.153307 0.111965,-0.501261 v -1.601966 h 0.401348 v 1.712209 q 0,0.420301 -0.261822,0.692463 -0.294555,0.303168 -0.723468,0.303168 -0.428914,0 -0.721746,-0.303168 -0.261827,-0.272162 -0.261827,-0.692463 v -1.712209 z m 3.65352,2.013654 h -1.13861 l -0.29627,0.645954 h -0.43236 l 1.31602,-2.826694 1.26952,2.826694 h -0.43925 z m -0.16365,-0.377237 -0.39446,-0.904335 -0.41341,0.904335 z m 1.61575,-1.636417 v 2.282371 h 0.78203 v 0.377237 h -1.18338 v -2.659608 z"
         id="path83" /><path
         style="text-align:center;text-anchor:middle"
         d="m 88.491684,61.018255 0.735526,1.843122 0.745862,-1.843122 h 0.439248 l -1.193723,2.859423 -1.166162,-2.859423 z m 2.652717,0 v 2.659608 h -0.401352 v -2.659608 z m 0.639064,2.659608 v -2.840475 l 1.939585,2.029157 v -1.84829 h 0.401352 v 2.821527 l -1.939584,-2.023989 v 1.86207 z m 3.712083,-2.282371 v 2.282371 h -0.401353 v -2.282371 h -0.611503 v -0.377237 h 1.622636 v 0.377237 z m 2.385723,1.636417 h -1.138602 l -0.296277,0.645954 h -0.432359 l 1.316024,-2.826695 1.269514,2.826695 h -0.439248 z m -0.163642,-0.377237 -0.394463,-0.904336 -0.41341,0.904336 z m 2.461511,-0.361734 h 1.09899 v 0.08785 q 0,0.299723 -0.0706,0.530544 -0.0689,0.213595 -0.23254,0.39963 -0.37035,0.416856 -0.94223,0.416856 -0.558107,0 -0.956014,-0.403076 -0.397908,-0.404797 -0.397908,-0.971514 0,-0.578775 0.404798,-0.98185 0.404798,-0.404798 0.985294,-0.404798 0.31178,0 0.58222,0.127468 0.25838,0.127468 0.50815,0.41341 l -0.28594,0.273885 q -0.32728,-0.435804 -0.79754,-0.435804 -0.422022,0 -0.707964,0.29111 -0.285943,0.285943 -0.285943,0.716579 0,0.444416 0.318671,0.732081 0.298,0.266994 0.645956,0.266994 0.29628,0 0.53226,-0.199815 0.23599,-0.201538 0.26355,-0.482312 h -0.66318 z m 3.0713,-0.897446 h -1.06625 v 0.639064 h 1.03524 v 0.377237 h -1.03524 v 0.888833 h 1.06625 v 0.377237 h -1.46761 v -2.659608 h 1.46761 z m 1.75011,-0.377237 0.73552,1.843122 0.74586,-1.843122 h 0.43925 l -1.19372,2.859423 -1.16616,-2.859423 z m 4.0962,0.142971 v 0.475422 q -0.34795,-0.29111 -0.72002,-0.29111 -0.40996,0 -0.69074,0.294555 -0.2825,0.292833 -0.2825,0.716579 0,0.418578 0.2825,0.706243 0.2825,0.287665 0.69246,0.287665 0.21188,0 0.36001,-0.0689 0.0827,-0.03445 0.17054,-0.09302 0.0896,-0.05857 0.18775,-0.141248 v 0.484035 q -0.3445,0.194647 -0.72346,0.194647 -0.57017,0 -0.97324,-0.397908 -0.40135,-0.401352 -0.40135,-0.968069 0,-0.508151 0.33589,-0.906058 0.41341,-0.48748 1.0697,-0.48748 0.35829,0 0.69246,0.194647 z m 2.13251,1.870683 h -1.1386 l -0.29628,0.645954 h -0.43235 l 1.31602,-2.826695 1.26951,2.826695 h -0.43924 z m -0.16364,-0.377237 -0.39446,-0.904336 -0.41341,0.904336 z"
         id="path84" /></g><text
       xml:space="preserve"
       style="font-size:3.52777px;line-height:1.25;font-family:Futura;-inkscape-font-specification:'Futura, Normal';stroke-width:0.264583"
       x="95.98819"
       y="176.02257"
       id="text52"><tspan
         sodipodi:role="line"
         id="tspan52"
         style="stroke-width:0.264583"
         x="95.98819"
         y="176.02257">BCM</tspan></text></g></svg>
